<svg xmlns="http://www.w3.org/2000/svg" height="30" viewBox="0 -960 960 960" width="30"><path fill="#fff" d="m399.232-104.745-17.128-119.346q-14.026-4.256-36.078-16.538-22.052-12.283-43.616-28.321l-110.256 48.897-81.678-143.741 98.974-73.205q-1.987-10.026-2.673-20.834-.686-10.808-.686-21.782 0-9.142.769-20.622.77-11.481 2.564-23.712l-98.948-73.513 81.678-142.241L303-690.973q16.218-13.244 37.129-25.443 20.91-12.199 41.59-18.852l17.513-120.462h162.062l17.128 119.731q20.667 7.59 40.494 18.968 19.827 11.378 36.571 26.058l113.141-48.73 81.422 142.241-101.936 74.538q2.039 11.18 2.827 21.719.789 10.538.789 21.205 0 10.09-.885 20.757-.885 10.666-2.962 22.244l100.949 73.205-81.679 143.741-111.666-49.756q-16.628 14.436-35.898 26.18-19.269 11.744-41.167 19.154l-17.128 119.73H399.232Zm79.229-262.5q47.077 0 79.916-32.839 32.84-32.84 32.84-79.916 0-47.076-32.84-79.916-32.839-32.839-79.916-32.839-47.384 0-80.069 32.839-32.686 32.84-32.686 79.916 0 47.076 32.686 79.916 32.685 32.839 80.069 32.839Z"/></svg>