<svg xmlns="http://www.w3.org/2000/svg" height="30" viewBox="0 -960 960 960" width="30"><path fill="#fff" d="M183.347-208.436v-47.883h69.936v-305.835q0-80.577 49.578-143.654 49.579-63.076 128.088-79.397v-20.885q0-20.628 14.159-34.909 14.158-14.282 34.768-14.282 20.611 0 34.893 14.282 14.282 14.281 14.282 34.909v20.885q78.743 16.321 128.467 79.397 49.725 63.077 49.725 143.654v305.835h69.935v47.883H183.347ZM479.932-98.001q-29.355 0-50.323-21.015-20.967-21.016-20.967-50.343h142.716q0 29.423-21.035 50.391-21.036 20.967-50.391 20.967Z"/></svg>