<svg xmlns="http://www.w3.org/2000/svg" height="30" viewBox="0 -960 960 960" width="30"><path fill="#fff" d="M480.015-492.245q-57.123 0-94.947-37.808-37.823-37.809-37.823-94.932 0-57.379 37.809-95.075 37.808-37.695 94.931-37.695t94.947 37.681q37.823 37.68 37.823 95.06 0 57.123-37.809 94.946-37.808 37.823-94.931 37.823ZM184.27-193.861v-77.408q0-31.014 16.382-54.672 16.381-23.658 43.243-36.421 61.427-27.847 119.709-42.204 58.281-14.356 116.402-14.356t116.237 14.384q58.115 14.385 119.604 42.269 27.146 12.657 43.514 36.369 16.369 23.713 16.369 54.792v77.247H184.27Z"/></svg>